#N canvas 66 97 532 466 12;
#X obj 57 22 vsl 19 162 0 127 0 0 empty empty empty 0 -9 0 12 #fcfcfc #000000 #000000 0 1;
#X floatatom 57 192 5 0 0 0 - - - 0;
#X obj 57 215 ctlout 100;
#X obj 137 22 vsl 19 162 0 127 0 0 empty empty empty 0 -9 0 12 #fcfcfc #000000 #000000 0 1;
#X floatatom 137 192 5 0 0 0 - - - 0;
#X obj 217 22 vsl 19 162 0 127 0 0 empty empty empty 0 -9 0 12 #fcfcfc #000000 #000000 0 1;
#X floatatom 217 192 5 0 0 0 - - - 0;
#X obj 137 215 ctlout 101;
#X obj 217 215 ctlout 102;
#X obj 141 261 vradio 19 1 0 5 empty empty empty 0 -10 0 12 #fcfcfc #000000 #000000 0;
#X floatatom 141 361 5 0 0 0 - - - 0;
#X obj 141 384 ctlout 103;
#X obj 64 287 midiin;
#X obj 64 311 midiout;
#X connect 0 0 1 0;
#X connect 1 0 2 0;
#X connect 3 0 4 0;
#X connect 4 0 7 0;
#X connect 5 0 6 0;
#X connect 6 0 8 0;
#X connect 9 0 10 0;
#X connect 10 0 11 0;
#X connect 12 0 13 0;
